<?xml version="1.0" encoding="utf-8"?>
<!-- Generator: Adobe Illustrator 18.0.0, SVG Export Plug-In . SVG Version: 6.00 Build 0)  -->
<!DOCTYPE svg PUBLIC "-//W3C//DTD SVG 1.1//EN" "http://www.w3.org/Graphics/SVG/1.1/DTD/svg11.dtd">
<svg version="1.1" id="Layer_1" xmlns="http://www.w3.org/2000/svg" xmlns:xlink="http://www.w3.org/1999/xlink" x="0px" y="0px"
	 width="256px" height="256px" viewBox="0 0 256 256" style="enable-background:new 0 0 256 256;" xml:space="preserve">
<style type="text/css">
	.st0{fill:#3B3A33;}
</style>
<g>
	<path class="st0" d="M42.9,105.2l0.3-0.3c0.4-1.5,1.1-6.5-3.8-11.2C34.5,89,28.8,88.9,27,89L27,89c0,1.7,0.3,7.4,4.9,12.2
		C36.6,106.1,41.4,105.6,42.9,105.2z"/>
	<path class="st0" d="M140.8,163.9c3.4-3.5,3.6-7.6,3.6-8.8l0,0c-1.3-0.1-5.4,0.1-8.9,3.4c-0.6,0.6-1.1,1.2-1.5,1.8v-13.2
		c3,2.6,6.9,4.2,11.1,4.2h45.5c6,0,11.3-3.1,14.3-7.8h9.9c9.4,0,17-7.6,17-17v-15.8c1.6,0.1,4.3-0.3,6.9-3c3.4-3.5,3.6-7.6,3.6-8.9
		l0,0c-1.3-0.1-5.4,0.1-9,3.5c-0.6,0.6-1.1,1.2-1.5,1.8v-1c0-1.6-1.3-2.9-2.9-2.9c-1.6,0-2.9,1.3-2.9,2.9v12.1
		c-0.1-0.1-0.2-0.2-0.2-0.2c-3.5-3.4-7.7-3.5-9-3.5l0,0.1c0,1.2,0.2,5.3,3.6,8.9c2,2.1,4.1,2.8,5.7,3v3.1c0,6.1-5,11.1-11.1,11.1
		h-7.6c0.2-0.9,0.3-1.7,0.3-2.6c0.2-1.3,0.3-4.2-2.6-7c-3.2-3.1-6.9-3.2-8.1-3.1l0,0c0,1.1,0.2,4.8,3.2,8c0.5,0.6,1.1,1,1.6,1.4
		c0,0,0,0,0,0c0,6.1-5,11.1-11.1,11.1h-10.7c2.6-3,4.2-6.9,4.2-11.1V112c2.1,0.2,6.1,0,10.1-4.2c4.7-4.8,5-10.5,4.9-12.2l-0.1-0.1
		c-1.7-0.1-7.5,0.1-12.4,4.8c-1.2,1.1-2,2.3-2.6,3.4V86.9c0-0.1,0-0.3,0-0.4c0,0,0-0.2,0-0.4c1.1,0.2,4.1,0.4,7.1-2.6
		c3.1-3.2,3.2-6.9,3.2-8l0,0c-1.1,0-4.9,0.1-8.1,3.1c-1,0.9-1.6,1.9-2,2.8c0.3-2.2,1.1-4.7,2.8-6.7c2.3-2.6,5.8-3.9,10.6-3.9
		c1.6,0,2.9-1.3,2.9-2.9c0-1.6-1.3-2.9-2.9-2.9c-6.6,0-11.7,2-15.1,6c-5.3,6.1-4.6,14.8-4.4,16.3V95c-0.6-1.4-1.6-2.9-3.1-4.3
		c-4.9-4.7-10.6-4.9-12.4-4.8l-0.1,0.1c0,1.7,0.3,7.4,4.9,12.2c4.3,4.5,8.8,4.4,10.6,4.1v16.1c-0.7-1.2-1.6-2.3-2.8-3.5
		c-6-5.8-13.2-6-15.4-5.9l-0.1,0.1c0,2.1,0.3,9.2,6.1,15.2c4.7,4.9,9.5,5.4,12.2,5.2v5c0,6.1-5,11.1-11.1,11.1h-22
		c-5.9,0-10.8-4.6-11.1-10.5l0.1,0.1c1.1,0.2,4.6,0.6,7.9-2.9c3.4-3.5,3.6-7.6,3.6-8.8l-0.1,0c-1.3-0.1-5.4,0.1-8.9,3.5
		c-1.6,1.5-2.4,3.1-2.7,4.5v-10.1c0.3,0.1,0.7,0.2,1.1,0.2c9.4,0,17-7.6,17-17v-15c1.5,0.1,4.4-0.1,7.2-3c3.4-3.5,3.6-7.6,3.6-8.8
		l0,0c-1.3-0.1-5.4,0.1-8.9,3.5c-0.8,0.8-1.4,1.6-1.8,2.3V57.6c1.6,0.3,6.3,0.8,11-4c4.7-4.8,5-10.5,4.9-12.2l-0.1-0.1
		c-1.7-0.1-7.5,0.1-12.4,4.8c-1.8,1.8-2.9,3.6-3.5,5.3V35.2c0-1.6-1.3-2.9-2.9-2.9c-1.1,0-2.1,0.6-2.6,1.6c-0.5-2.5-1.8-5.3-4.8-8.1
		c-6-5.8-13.2-6-15.4-5.9l-0.1,0.1c0,2.1,0.3,9.2,6.1,15.2c5.8,6,11.8,5.4,13.7,5l0,0v21.7c-0.6-1.4-1.6-2.9-3.1-4.3
		c-4.9-4.7-10.6-4.9-12.4-4.8l-0.1,0.1c0,1.7,0.3,7.4,4.9,12.2c4.3,4.5,8.8,4.4,10.6,4.1v35.5c0,6.1-5,11.1-11.1,11.1
		c-0.4,0-0.7,0.1-1.1,0.2v-4.9c0,0,0,0,0-0.1v-8.7l0,0c1,0.2,4.1,0.6,7.1-2.6c3-3.1,3.2-6.8,3.2-7.9l0,0c-1.1,0-4.9,0.1-8,3.1
		c-1.3,1.2-2,2.5-2.3,3.6V80.6c0-9.4-7.6-17-17-17h-3.1c-0.1-1.6-0.6-3.8-2.9-6c-3.5-3.3-7.5-3.4-8.8-3.4l0,0c0,1.2,0.2,5.2,3.5,8.7
		c0.2,0.3,0.5,0.5,0.7,0.7h-9.8C96,61,94.7,58,91.6,55.1c-6-5.8-13.2-6-15.4-5.9l-0.1,0.1c0,2.1,0.3,9.2,6.1,15.2
		c5.5,5.7,11.1,5.4,13.3,5.1h21.2c6.1,0,11.1,5,11.1,11.1v8.4c-0.7-2.1-2-4.3-4.3-6.5c-6-5.8-13.2-6-15.4-5.9l-0.1,0.1
		c0,2.1,0.3,9.2,6.1,15.2c5.8,6,11.7,5.4,13.6,5v28.2c0,0,0,0,0,0v9.2c-0.6-1.3-1.6-2.7-3-4.1c-4.9-4.7-10.6-4.9-12.4-4.8l-0.1,0.1
		c0,1.7,0.3,7.4,4.9,12.2c4.3,4.4,8.6,4.4,10.5,4.1v6.7c0,6.1-5,11.1-11.1,11.1h-10.3c2.6-3,4.2-6.9,4.2-11.1v-36.6
		c1.4,0.2,4.4,0.1,7.3-2.9c3.3-3.4,3.5-7.4,3.5-8.6l0,0c-1.2,0-5.3,0.1-8.7,3.4c-0.9,0.9-1.6,1.8-2,2.7v-5.5c0-9.1-7.1-16.5-16.1-17
		c-0.4-1-1.1-2-2.1-3c-3.5-3.3-7.5-3.4-8.8-3.4l0,0c0,1.2,0.2,5.2,3.5,8.7c1.6,1.7,3.2,2.4,4.6,2.8c0.5,0.4,1.2,0.7,1.9,0.7
		c6.1,0,11.1,5,11.1,11.1v16.3c-0.6-1.3-1.5-2.6-2.9-3.9c-4.9-4.7-10.6-4.9-12.4-4.8l-0.1,0.1c0,1.7,0.3,7.4,4.9,12.2
		c4.2,4.3,8.5,4.4,10.4,4.1v16.7c-0.7-1.8-1.8-3.9-3.9-5.9c-5.5-5.3-12-5.5-14-5.4l-0.1,0.1c0,1.9,0.3,8.3,5.6,13.8
		c5.2,5.4,10.5,4.9,12.3,4.6c-0.2,6-5.1,10.8-11.1,10.8H84H70.8v-4.7c1.5,0.2,5.2,0.3,8.8-3.4c3.9-4,4.1-8.7,4.1-10.1l-0.1-0.1
		c-1.4-0.1-6.2,0.1-10.3,4c-1.2,1.2-2,2.4-2.6,3.6v-24.1c1.4,0.2,4.4,0.1,7.3-2.9c3.3-3.4,3.5-7.4,3.5-8.6l0,0
		c-1.2-0.1-5.3,0.1-8.7,3.4c-0.9,0.9-1.6,1.8-2,2.7c0.3-5.9,5.2-10.6,11.1-10.6c1.6,0,2.9-1.3,2.9-2.9s-1.3-2.9-2.9-2.9
		c-9.4,0-17,7.6-17,17v9.4c-0.4-1-1.1-2-2.1-3c-3.2-3.1-7-3.2-8.2-3.2l0,0c0,1.1,0.2,4.9,3.3,8.1c2.9,3,5.9,2.9,7.1,2.7v25.7h-4.4
		c-5.3,0-9.8-3.7-10.9-8.7l0.1,0.1c1.2,0.3,5.2,0.7,9.1-3.3c3.9-4,4.1-8.7,4.1-10.1l0-0.1c-1.4-0.1-6.2,0.1-10.3,4
		c-2.2,2.1-3,4.3-3.3,6.1v-36c0,0.2,0.1,0.4,0.1,0.5l0.3,0.3c1.5,0.3,6.3,0.9,11-4c4.7-4.8,5-10.5,4.9-12.2L65.7,96
		c-1.7-0.1-7.5,0.1-12.4,4.8c-2.6,2.5-3.6,5-3.9,7.1V86.1c0-1.6-1.3-2.9-2.9-2.9c-1.6,0-2.9,1.3-2.9,2.9v37.3
		c-0.8-1.7-2-3.6-3.9-5.4c-6-5.8-13.2-6-15.4-5.9l-0.1,0.1c0,2.1,0.3,9.2,6.1,15.2c5.4,5.6,10.9,5.4,13.2,5.1v16.1
		c0,4.3,1.6,8.2,4.2,11.1H33.9c-5.1,0-9.4-3.4-10.7-8.1c2,0.2,6.2,0.1,10.3-4.1c4.7-4.8,5-10.5,4.9-12.2l-0.1-0.1
		c-1.7-0.1-7.5,0.1-12.4,4.8c-2.4,2.3-3.5,4.7-3.9,6.7c-0.5-0.7-1.4-1.1-2.3-1.1c-0.5,0-0.9,0.1-1.3,0.3c-0.3-1.3-1-2.9-2.5-4.4
		c-3.2-3.1-7-3.2-8.2-3.2l0,0c0,1.1,0.2,4.9,3.3,8.1c2.2,2.3,4.4,2.8,5.9,2.8c0.4,9,7.9,16.3,17,16.3h26.6H65v1.9
		c0,0.6,0,1.1,0.1,1.7c-2.8-1.8-5.5-1.8-6.5-1.8l0,0c0,1.1,0.2,4.9,3.3,8.1c2.8,2.9,5.7,2.9,7,2.7c2.7,3.4,6.7,5.6,11.2,6.2
		c-1.5,0.3-3.4,1.2-5.2,3.1c-3.6,3.8-3.9,8.2-3.8,9.5l0,0.1c1.4,0.1,5.8-0.1,9.6-3.7c3.8-3.7,3.3-7.6,3-8.7l0,0h18.3
		c-0.9,0.4-1.8,1.1-2.8,2c-3.1,3.2-3.3,6.9-3.2,8l0,0c1.1,0,4.9-0.1,8.1-3.1c2.8-2.7,2.8-5.6,2.6-6.9c5.6,0.6,10,5.3,10,11.1v17.6
		c0,6.1-5,11.1-11.1,11.1c-1.6,0-2.9,1.3-2.9,2.9s1.3,2.9,2.9,2.9c9.4,0,17-7.6,17-17v-17.6c0-2.6-0.6-5-1.6-7.2
		c7.4-1.8,12.9-8.5,12.9-16.5v-4.8C135.4,167,138.1,166.7,140.8,163.9z M116.9,182.9c-3-2.7-7-4.4-11.4-4.4h-0.1c0,0,0,0,0,0H88
		c0.8-0.4,1.7-1,2.5-1.9c3-3.1,3.2-6.8,3.2-7.9l0,0c-1.1-0.1-4.9,0.1-8,3.1c-2.7,2.6-2.8,5.4-2.6,6.7H82c-6.1,0-11.1-5-11.1-11.1
		v-1.9H84h9.7h23.1c4.3,0,8.2-1.6,11.1-4.2v10.5C128,177.8,123,182.8,116.9,182.9z"/>
	<path class="st0" d="M152.2,35.2c1,0.2,4.1,0.6,7.1-2.6c3-3.1,3.2-6.8,3.2-7.9l0,0c-1.1,0-4.9,0.1-8,3.1c-3.2,3.1-2.7,6.3-2.5,7.3
		L152.2,35.2z"/>
	<path class="st0" d="M246.9,134.1L246.9,134.1c-1.3-0.1-5.5,0-9,3.4c-0.5,0.5-0.9,1-1.3,1.5c-0.4-1.1-1.5-1.9-2.7-1.9
		c-1.6,0-2.9,1.3-2.9,2.9v17c-0.6-1.5-1.6-3-3.2-4.5c-4.8-4.7-10.6-4.8-12.3-4.7l-0.1,0.1c0,1.7,0.3,7.3,4.9,12.1
		c4.3,4.5,8.8,4.3,10.6,4c-0.3,5.9-5.1,10.6-11.1,10.6h-27.1c1-0.6,2-1.3,3-2.4c4.4-4.5,4.6-9.8,4.6-11.4l-0.1-0.1
		c-1.6-0.1-7,0.1-11.6,4.5c-3.7,3.6-4,7.4-3.8,9.4h-12.6c-5.7,0-10.5-4.4-11.1-10h19c0.8,0,1.6-0.4,2.1-0.9c1.4-0.1,3.2-0.7,5.1-2.6
		c2.9-3,3.1-6.5,3.1-7.6l0,0c-1.1,0-4.7,0.1-7.7,3c-0.8,0.8-1.4,1.7-1.8,2.4c-0.2-0.1-0.5-0.1-0.8-0.1h-23.5c-9.4,0-17,7.6-17,17
		V213c0,9.4,7.6,17,17,17c1.6,0,2.9-1.3,2.9-2.9s-1.3-2.9-2.9-2.9c-6.1,0-11.1-5-11.1-11.1v-19c1,0.1,2.9-0.1,4.8-2
		c2.2-2.3,2.4-5,2.4-5.8l0,0c-0.8,0-3.6,0-5.9,2.3c-0.5,0.5-0.9,1-1.2,1.5v-7.3c1.4,0.1,3.6-0.3,5.9-2.6c2.9-3,3.1-6.5,3.1-7.6l0,0
		c-1.1,0-4.7,0.1-7.7,3c-0.5,0.5-0.9,0.9-1.2,1.4v-1c0-5.7,4.3-10.3,9.7-11c0.7,8.8,8,15.7,16.9,15.7h25.5c-0.2,1.8-0.2,5.8,3.9,9.7
		c4.5,4.4,9.8,4.6,11.4,4.6l0.1-0.1c0.1-1.6-0.1-7-4.5-11.6c-1.2-1.2-2.4-2.1-3.6-2.7h14.7c9.4,0,17-7.6,17-17V146
		c1.6,0,4.1-0.5,6.5-3.1C246.8,139.4,247,135.3,246.9,134.1z"/>
</g>
</svg>
